<svg width="932" height="936" viewBox="0 0 932 936" fill="none" xmlns="http://www.w3.org/2000/svg">
<path d="M725 311C760.346 311 789 339.654 789 375V432.909C789 447.871 776.871 460 761.909 460H725V311Z" fill="#CB0069"/>
<path d="M691.828 622.508C691.828 657.026 663.846 685.008 629.328 685.008C594.81 685.008 566.828 657.026 566.828 622.508V428.008H691.828V622.508Z" fill="#CB0069"/>
<path d="M370.828 622.508C370.828 657.026 342.846 685.008 308.328 685.008C273.81 685.008 245.828 657.026 245.828 622.508V428.008H370.828V622.508Z" fill="#CB0069"/>
<path d="M225.984 648C190.638 648 161.984 619.346 161.984 584V428H225.984V648Z" fill="#CB0069"/>
<path d="M741 311C776.346 311 805 339.654 805 375V432.909C805 447.871 792.871 460 777.909 460H741V311Z" fill="#FF85C4"/>
<path d="M707.828 622.508C707.828 657.026 679.846 685.008 645.328 685.008C610.81 685.008 582.828 657.026 582.828 622.508V428.008H707.828V622.508Z" fill="#FF85C4"/>
<path d="M532.914 620.5C532.914 656.122 504.036 685 468.414 685C432.792 685 403.914 656.122 403.914 620.5V428H532.914V620.5Z" fill="#CB0069"/>
<path d="M548.914 618.5C548.914 655.227 519.141 685 482.414 685C445.687 685 415.914 655.227 415.914 618.5V428H548.914V618.5Z" fill="#FF85C4"/>
<path d="M385.828 622.508C385.828 657.026 357.846 685.008 323.328 685.008C288.81 685.008 260.828 657.026 260.828 622.508V428.008H385.828V622.508Z" fill="#FF85C4"/>
<path d="M235.984 648C201.743 648 173.984 620.242 173.984 586V428H235.984V648Z" fill="#FF85C4"/>
<path d="M162 273C162 122.226 284.226 0 435 0C585.774 0 708 122.226 708 273V284V343H162V284V273Z" fill="#CB0069"/>
<path d="M164 272C164 121.779 285.779 0 436 0C586.221 0 708 121.779 708 272V284V343H164V284V272Z" fill="#FF85C4"/>
<rect x="567.102" y="340" width="125" height="94" fill="#CB0069"/>
<path d="M567 338H708V438H583C582.003 406.736 577.325 375.699 569.063 345.531L567 338Z" fill="#FF85C4"/>
<rect x="404.102" y="340" width="125" height="94" fill="#CB0069"/>
<path d="M404 336H567L565.899 339.043C554.419 370.772 548.547 404.257 548.547 438H416.206C416.61 406.517 413.177 375.103 405.983 344.45L404 336Z" fill="#FF85C4"/>
<path d="M246.305 340H371.102V434H246.102L246.305 340Z" fill="#CB0069"/>
<path d="M245 338H404L402.936 340.956C391.73 372.083 386 404.917 386 438H260.845C258.618 407.068 253.957 376.359 246.905 346.159L245 338Z" fill="#FF85C4"/>
<path d="M162.204 340H225.102V434H162.102L162.204 340Z" fill="#CB0069"/>
<path d="M164 338H245L244.85 338.82C238.849 371.539 235.83 404.735 235.83 438H173.614L172.762 414.765L171.91 391.529L164 338Z" fill="#FF85C4"/>
</svg>


