<svg width="644" height="936" viewBox="0 0 644 936" fill="none" xmlns="http://www.w3.org/2000/svg">
<path d="M564 311C599.346 311 628 339.654 628 375V432.909C628 447.871 615.871 460 600.909 460H564V311Z" fill="#CB0069"/>
<path d="M530.828 622.508C530.828 657.026 502.846 685.008 468.328 685.008C433.81 685.008 405.828 657.026 405.828 622.508V428.008H530.828V622.508Z" fill="#CB0069"/>
<path d="M209.828 622.508C209.828 657.026 181.846 685.008 147.328 685.008C112.81 685.008 84.8281 657.026 84.8281 622.508V428.008H209.828V622.508Z" fill="#CB0069"/>
<path d="M64.8281 584.008C29.4933 584.008 0.859707 555.343 0.898638 520.008L1 428.008H64.8281V584.008Z" fill="#CB0069"/>
<path d="M580 311C615.346 311 644 339.654 644 375V432.909C644 447.871 631.871 460 616.909 460H580V311Z" fill="#FF85C4"/>
<path d="M546.828 622.508C546.828 657.026 518.846 685.008 484.328 685.008C449.81 685.008 421.828 657.026 421.828 622.508V428.008H546.828V622.508Z" fill="#FF85C4"/>
<path d="M371.914 871.5C371.914 907.122 343.036 936 307.414 936C271.792 936 242.914 907.122 242.914 871.5V428H371.914V871.5Z" fill="#CB0069"/>
<path d="M387.914 869.5C387.914 906.227 358.141 936 321.414 936C284.687 936 254.914 906.227 254.914 869.5V428H387.914V869.5Z" fill="#FF85C4"/>
<path d="M224.828 622.508C224.828 657.026 196.846 685.008 162.328 685.008C127.81 685.008 99.8281 657.026 99.8281 622.508V428.008H224.828V622.508Z" fill="#FF85C4"/>
<path d="M75.1484 584C40.9068 584 13.1484 556.242 13.1484 522V428H75.1484V584Z" fill="#FF85C4"/>
<path d="M1 273C1 122.226 123.226 0 274 0C424.774 0 547 122.226 547 273V284V343H1V284V273Z" fill="#CB0069"/>
<path d="M3 272C3 121.779 124.779 0 275 0C425.221 0 547 121.779 547 272V284V343H3V284V272Z" fill="#FF85C4"/>
<rect x="406" y="343" width="125" height="85" fill="#CB0069"/>
<path d="M406 342H547V430H422C421.004 402.514 416.359 375.283 408.185 349.021L406 342Z" fill="#FF85C4"/>
<rect x="243" y="343" width="125" height="85" fill="#CB0069"/>
<path d="M243 342H406L404.564 345.424C393.332 372.206 387.547 400.958 387.547 430H255.206C255.61 402.872 252.201 375.821 245.079 349.641L243 342Z" fill="#FF85C4"/>
<path d="M85.2039 343H210V429H85L85.2039 343Z" fill="#CB0069"/>
<path d="M84 342H243L241.66 345.276C230.659 372.168 225 400.945 225 430H99.845C97.6194 402.791 92.9782 375.834 85.9763 349.448L84 342Z" fill="#FF85C4"/>
<path d="M1.10275 343H64V429H1L1.10275 343Z" fill="#CB0069"/>
<path d="M3 340H84L83.8153 340.906C77.8404 370.228 74.8302 400.076 74.8302 430L13 430L11.7621 409.088L10.9101 388.176L3 340Z" fill="#FF85C4"/>
</svg>
